ISO-10303-21;
HEADER;
/* Generated by software containing ST-Developer
 * from STEP Tools, Inc. (www.steptools.com) 
 */
/* OPTION: using custom renumber hook */

FILE_DESCRIPTION(
/* description */ ('STEP AP242',
'CAx-IF Rec.Pracs.---Representation and Presentation of Product Manufa
cturing Information (PMI)---4.0---2014-10-13',
'CAx-IF Rec.Pracs.---3D Tessellated Geometry---0.4---2014-09-14','2;1'),

/* implementation_level */ '2;1');

FILE_NAME(
/* name */ '68a838dfca9d410209fc4c25',
/* time_stamp */ '2025-08-22T09:31:12Z',
/* author */ (''),
/* organization */ (''),
/* preprocessor_version */ 'ST-DEVELOPER v20',
/* originating_system */ 'ONSHAPE BY PTC INC, 1.202',
/* authorisation */ '  ');

FILE_SCHEMA (('AP242_MANAGED_MODEL_BASED_3D_ENGINEERING_MIM_LF { 1 0 10303 442 1 1 4 }'));
ENDSEC;

DATA;
#10=SHAPE_REPRESENTATION_RELATIONSHIP('','',#595,#11);
#11=ADVANCED_BREP_SHAPE_REPRESENTATION('',(#593),#969);
#12=LINE('',#797,#84);
#13=LINE('',#800,#85);
#14=LINE('',#802,#86);
#15=LINE('',#804,#87);
#16=LINE('',#806,#88);
#17=LINE('',#808,#89);
#18=LINE('',#810,#90);
#19=LINE('',#812,#91);
#20=LINE('',#814,#92);
#21=LINE('',#816,#93);
#22=LINE('',#818,#94);
#23=LINE('',#820,#95);
#24=LINE('',#822,#96);
#25=LINE('',#824,#97);
#26=LINE('',#826,#98);
#27=LINE('',#828,#99);
#28=LINE('',#830,#100);
#29=LINE('',#832,#101);
#30=LINE('',#834,#102);
#31=LINE('',#836,#103);
#32=LINE('',#838,#104);
#33=LINE('',#840,#105);
#34=LINE('',#842,#106);
#35=LINE('',#844,#107);
#36=LINE('',#846,#108);
#37=LINE('',#848,#109);
#38=LINE('',#850,#110);
#39=LINE('',#852,#111);
#40=LINE('',#854,#112);
#41=LINE('',#856,#113);
#42=LINE('',#858,#114);
#43=LINE('',#860,#115);
#44=LINE('',#862,#116);
#45=LINE('',#864,#117);
#46=LINE('',#866,#118);
#47=LINE('',#868,#119);
#48=LINE('',#870,#120);
#49=LINE('',#874,#121);
#50=LINE('',#876,#122);
#51=LINE('',#878,#123);
#52=LINE('',#880,#124);
#53=LINE('',#882,#125);
#54=LINE('',#884,#126);
#55=LINE('',#886,#127);
#56=LINE('',#888,#128);
#57=LINE('',#890,#129);
#58=LINE('',#892,#130);
#59=LINE('',#894,#131);
#60=LINE('',#896,#132);
#61=LINE('',#898,#133);
#62=LINE('',#900,#134);
#63=LINE('',#902,#135);
#64=LINE('',#904,#136);
#65=LINE('',#906,#137);
#66=LINE('',#908,#138);
#67=LINE('',#910,#139);
#68=LINE('',#912,#140);
#69=LINE('',#914,#141);
#70=LINE('',#916,#142);
#71=LINE('',#918,#143);
#72=LINE('',#920,#144);
#73=LINE('',#922,#145);
#74=LINE('',#924,#146);
#75=LINE('',#926,#147);
#76=LINE('',#928,#148);
#77=LINE('',#930,#149);
#78=LINE('',#932,#150);
#79=LINE('',#934,#151);
#80=LINE('',#936,#152);
#81=LINE('',#938,#153);
#82=LINE('',#940,#154);
#83=LINE('',#941,#155);
#84=VECTOR('',#640,1.);
#85=VECTOR('',#641,1.);
#86=VECTOR('',#642,1.);
#87=VECTOR('',#643,1.);
#88=VECTOR('',#646,1.);
#89=VECTOR('',#647,1.);
#90=VECTOR('',#648,1.);
#91=VECTOR('',#651,1.);
#92=VECTOR('',#652,1.);
#93=VECTOR('',#653,1.);
#94=VECTOR('',#656,1.);
#95=VECTOR('',#657,1.);
#96=VECTOR('',#658,1.);
#97=VECTOR('',#661,1.);
#98=VECTOR('',#662,1.);
#99=VECTOR('',#663,1.);
#100=VECTOR('',#666,1.);
#101=VECTOR('',#667,1.);
#102=VECTOR('',#668,1.);
#103=VECTOR('',#671,1.);
#104=VECTOR('',#672,1.);
#105=VECTOR('',#673,1.);
#106=VECTOR('',#676,1.);
#107=VECTOR('',#677,1.);
#108=VECTOR('',#678,1.);
#109=VECTOR('',#681,1.);
#110=VECTOR('',#682,1.);
#111=VECTOR('',#683,1.);
#112=VECTOR('',#686,1.);
#113=VECTOR('',#687,1.);
#114=VECTOR('',#688,1.);
#115=VECTOR('',#691,1.);
#116=VECTOR('',#692,1.);
#117=VECTOR('',#693,1.);
#118=VECTOR('',#696,1.);
#119=VECTOR('',#697,1.);
#120=VECTOR('',#698,1.);
#121=VECTOR('',#703,1.);
#122=VECTOR('',#704,1.);
#123=VECTOR('',#705,1.);
#124=VECTOR('',#708,1.);
#125=VECTOR('',#709,1.);
#126=VECTOR('',#710,1.);
#127=VECTOR('',#713,1.);
#128=VECTOR('',#714,1.);
#129=VECTOR('',#715,1.);
#130=VECTOR('',#718,1.);
#131=VECTOR('',#719,1.);
#132=VECTOR('',#720,1.);
#133=VECTOR('',#723,1.);
#134=VECTOR('',#724,1.);
#135=VECTOR('',#725,1.);
#136=VECTOR('',#728,1.);
#137=VECTOR('',#729,1.);
#138=VECTOR('',#730,1.);
#139=VECTOR('',#733,1.);
#140=VECTOR('',#734,1.);
#141=VECTOR('',#735,1.);
#142=VECTOR('',#738,1.);
#143=VECTOR('',#739,1.);
#144=VECTOR('',#740,1.);
#145=VECTOR('',#743,1.);
#146=VECTOR('',#744,1.);
#147=VECTOR('',#745,1.);
#148=VECTOR('',#748,1.);
#149=VECTOR('',#749,1.);
#150=VECTOR('',#750,1.);
#151=VECTOR('',#753,1.);
#152=VECTOR('',#754,1.);
#153=VECTOR('',#755,1.);
#154=VECTOR('',#758,1.);
#155=VECTOR('',#759,1.);
#156=PLANE('',#599);
#157=PLANE('',#601);
#158=PLANE('',#602);
#159=PLANE('',#603);
#160=PLANE('',#604);
#161=PLANE('',#605);
#162=PLANE('',#606);
#163=PLANE('',#607);
#164=PLANE('',#608);
#165=PLANE('',#609);
#166=PLANE('',#610);
#167=PLANE('',#611);
#168=PLANE('',#612);
#169=PLANE('',#614);
#170=PLANE('',#615);
#171=PLANE('',#616);
#172=PLANE('',#617);
#173=PLANE('',#618);
#174=PLANE('',#619);
#175=PLANE('',#620);
#176=PLANE('',#621);
#177=PLANE('',#622);
#178=PLANE('',#623);
#179=PLANE('',#624);
#180=PLANE('',#625);
#181=PLANE('',#626);
#182=CIRCLE('',#598,0.00125);
#183=CIRCLE('',#600,0.0015);
#184=CIRCLE('',#613,0.0015);
#185=CIRCLE('',#627,0.00125);
#186=ORIENTED_EDGE('',*,*,#342,.T.);
#187=ORIENTED_EDGE('',*,*,#343,.F.);
#188=ORIENTED_EDGE('',*,*,#344,.F.);
#189=ORIENTED_EDGE('',*,*,#345,.T.);
#190=ORIENTED_EDGE('',*,*,#346,.F.);
#191=ORIENTED_EDGE('',*,*,#347,.F.);
#192=ORIENTED_EDGE('',*,*,#348,.T.);
#193=ORIENTED_EDGE('',*,*,#349,.F.);
#194=ORIENTED_EDGE('',*,*,#348,.F.);
#195=ORIENTED_EDGE('',*,*,#350,.T.);
#196=ORIENTED_EDGE('',*,*,#351,.T.);
#197=ORIENTED_EDGE('',*,*,#352,.F.);
#198=ORIENTED_EDGE('',*,*,#351,.F.);
#199=ORIENTED_EDGE('',*,*,#353,.T.);
#200=ORIENTED_EDGE('',*,*,#354,.T.);
#201=ORIENTED_EDGE('',*,*,#355,.F.);
#202=ORIENTED_EDGE('',*,*,#354,.F.);
#203=ORIENTED_EDGE('',*,*,#356,.T.);
#204=ORIENTED_EDGE('',*,*,#357,.T.);
#205=ORIENTED_EDGE('',*,*,#358,.F.);
#206=ORIENTED_EDGE('',*,*,#357,.F.);
#207=ORIENTED_EDGE('',*,*,#359,.T.);
#208=ORIENTED_EDGE('',*,*,#360,.T.);
#209=ORIENTED_EDGE('',*,*,#361,.F.);
#210=ORIENTED_EDGE('',*,*,#360,.F.);
#211=ORIENTED_EDGE('',*,*,#362,.T.);
#212=ORIENTED_EDGE('',*,*,#363,.T.);
#213=ORIENTED_EDGE('',*,*,#364,.F.);
#214=ORIENTED_EDGE('',*,*,#363,.F.);
#215=ORIENTED_EDGE('',*,*,#365,.T.);
#216=ORIENTED_EDGE('',*,*,#366,.T.);
#217=ORIENTED_EDGE('',*,*,#367,.F.);
#218=ORIENTED_EDGE('',*,*,#366,.F.);
#219=ORIENTED_EDGE('',*,*,#368,.T.);
#220=ORIENTED_EDGE('',*,*,#369,.T.);
#221=ORIENTED_EDGE('',*,*,#370,.F.);
#222=ORIENTED_EDGE('',*,*,#369,.F.);
#223=ORIENTED_EDGE('',*,*,#371,.T.);
#224=ORIENTED_EDGE('',*,*,#372,.T.);
#225=ORIENTED_EDGE('',*,*,#373,.F.);
#226=ORIENTED_EDGE('',*,*,#372,.F.);
#227=ORIENTED_EDGE('',*,*,#374,.T.);
#228=ORIENTED_EDGE('',*,*,#375,.T.);
#229=ORIENTED_EDGE('',*,*,#376,.F.);
#230=ORIENTED_EDGE('',*,*,#375,.F.);
#231=ORIENTED_EDGE('',*,*,#377,.T.);
#232=ORIENTED_EDGE('',*,*,#378,.T.);
#233=ORIENTED_EDGE('',*,*,#379,.F.);
#234=ORIENTED_EDGE('',*,*,#378,.F.);
#235=ORIENTED_EDGE('',*,*,#380,.T.);
#236=ORIENTED_EDGE('',*,*,#381,.T.);
#237=ORIENTED_EDGE('',*,*,#382,.F.);
#238=ORIENTED_EDGE('',*,*,#383,.T.);
#239=ORIENTED_EDGE('',*,*,#381,.F.);
#240=ORIENTED_EDGE('',*,*,#384,.F.);
#241=ORIENTED_EDGE('',*,*,#385,.T.);
#242=ORIENTED_EDGE('',*,*,#386,.T.);
#243=ORIENTED_EDGE('',*,*,#385,.F.);
#244=ORIENTED_EDGE('',*,*,#387,.F.);
#245=ORIENTED_EDGE('',*,*,#388,.T.);
#246=ORIENTED_EDGE('',*,*,#389,.T.);
#247=ORIENTED_EDGE('',*,*,#388,.F.);
#248=ORIENTED_EDGE('',*,*,#390,.F.);
#249=ORIENTED_EDGE('',*,*,#391,.T.);
#250=ORIENTED_EDGE('',*,*,#392,.T.);
#251=ORIENTED_EDGE('',*,*,#391,.F.);
#252=ORIENTED_EDGE('',*,*,#393,.F.);
#253=ORIENTED_EDGE('',*,*,#394,.T.);
#254=ORIENTED_EDGE('',*,*,#395,.T.);
#255=ORIENTED_EDGE('',*,*,#394,.F.);
#256=ORIENTED_EDGE('',*,*,#396,.F.);
#257=ORIENTED_EDGE('',*,*,#397,.T.);
#258=ORIENTED_EDGE('',*,*,#398,.T.);
#259=ORIENTED_EDGE('',*,*,#397,.F.);
#260=ORIENTED_EDGE('',*,*,#399,.F.);
#261=ORIENTED_EDGE('',*,*,#400,.T.);
#262=ORIENTED_EDGE('',*,*,#401,.T.);
#263=ORIENTED_EDGE('',*,*,#400,.F.);
#264=ORIENTED_EDGE('',*,*,#402,.F.);
#265=ORIENTED_EDGE('',*,*,#403,.T.);
#266=ORIENTED_EDGE('',*,*,#404,.T.);
#267=ORIENTED_EDGE('',*,*,#403,.F.);
#268=ORIENTED_EDGE('',*,*,#405,.F.);
#269=ORIENTED_EDGE('',*,*,#406,.T.);
#270=ORIENTED_EDGE('',*,*,#407,.T.);
#271=ORIENTED_EDGE('',*,*,#406,.F.);
#272=ORIENTED_EDGE('',*,*,#408,.F.);
#273=ORIENTED_EDGE('',*,*,#409,.T.);
#274=ORIENTED_EDGE('',*,*,#410,.T.);
#275=ORIENTED_EDGE('',*,*,#409,.F.);
#276=ORIENTED_EDGE('',*,*,#411,.F.);
#277=ORIENTED_EDGE('',*,*,#412,.T.);
#278=ORIENTED_EDGE('',*,*,#413,.T.);
#279=ORIENTED_EDGE('',*,*,#412,.F.);
#280=ORIENTED_EDGE('',*,*,#414,.F.);
#281=ORIENTED_EDGE('',*,*,#415,.T.);
#282=ORIENTED_EDGE('',*,*,#416,.T.);
#283=ORIENTED_EDGE('',*,*,#415,.F.);
#284=ORIENTED_EDGE('',*,*,#417,.F.);
#285=ORIENTED_EDGE('',*,*,#346,.T.);
#286=ORIENTED_EDGE('',*,*,#343,.T.);
#287=ORIENTED_EDGE('',*,*,#347,.T.);
#288=ORIENTED_EDGE('',*,*,#417,.T.);
#289=ORIENTED_EDGE('',*,*,#414,.T.);
#290=ORIENTED_EDGE('',*,*,#411,.T.);
#291=ORIENTED_EDGE('',*,*,#408,.T.);
#292=ORIENTED_EDGE('',*,*,#405,.T.);
#293=ORIENTED_EDGE('',*,*,#402,.T.);
#294=ORIENTED_EDGE('',*,*,#399,.T.);
#295=ORIENTED_EDGE('',*,*,#396,.T.);
#296=ORIENTED_EDGE('',*,*,#393,.T.);
#297=ORIENTED_EDGE('',*,*,#390,.T.);
#298=ORIENTED_EDGE('',*,*,#387,.T.);
#299=ORIENTED_EDGE('',*,*,#384,.T.);
#300=ORIENTED_EDGE('',*,*,#380,.F.);
#301=ORIENTED_EDGE('',*,*,#377,.F.);
#302=ORIENTED_EDGE('',*,*,#374,.F.);
#303=ORIENTED_EDGE('',*,*,#371,.F.);
#304=ORIENTED_EDGE('',*,*,#368,.F.);
#305=ORIENTED_EDGE('',*,*,#365,.F.);
#306=ORIENTED_EDGE('',*,*,#362,.F.);
#307=ORIENTED_EDGE('',*,*,#359,.F.);
#308=ORIENTED_EDGE('',*,*,#356,.F.);
#309=ORIENTED_EDGE('',*,*,#353,.F.);
#310=ORIENTED_EDGE('',*,*,#350,.F.);
#311=ORIENTED_EDGE('',*,*,#418,.F.);
#312=ORIENTED_EDGE('',*,*,#345,.F.);
#313=ORIENTED_EDGE('',*,*,#349,.T.);
#314=ORIENTED_EDGE('',*,*,#352,.T.);
#315=ORIENTED_EDGE('',*,*,#355,.T.);
#316=ORIENTED_EDGE('',*,*,#358,.T.);
#317=ORIENTED_EDGE('',*,*,#361,.T.);
#318=ORIENTED_EDGE('',*,*,#364,.T.);
#319=ORIENTED_EDGE('',*,*,#367,.T.);
#320=ORIENTED_EDGE('',*,*,#370,.T.);
#321=ORIENTED_EDGE('',*,*,#373,.T.);
#322=ORIENTED_EDGE('',*,*,#376,.T.);
#323=ORIENTED_EDGE('',*,*,#379,.T.);
#324=ORIENTED_EDGE('',*,*,#383,.F.);
#325=ORIENTED_EDGE('',*,*,#386,.F.);
#326=ORIENTED_EDGE('',*,*,#389,.F.);
#327=ORIENTED_EDGE('',*,*,#392,.F.);
#328=ORIENTED_EDGE('',*,*,#395,.F.);
#329=ORIENTED_EDGE('',*,*,#398,.F.);
#330=ORIENTED_EDGE('',*,*,#401,.F.);
#331=ORIENTED_EDGE('',*,*,#404,.F.);
#332=ORIENTED_EDGE('',*,*,#407,.F.);
#333=ORIENTED_EDGE('',*,*,#410,.F.);
#334=ORIENTED_EDGE('',*,*,#413,.F.);
#335=ORIENTED_EDGE('',*,*,#416,.F.);
#336=ORIENTED_EDGE('',*,*,#419,.T.);
#337=ORIENTED_EDGE('',*,*,#418,.T.);
#338=ORIENTED_EDGE('',*,*,#419,.F.);
#339=ORIENTED_EDGE('',*,*,#344,.T.);
#340=ORIENTED_EDGE('',*,*,#382,.T.);
#341=ORIENTED_EDGE('',*,*,#342,.F.);
#342=EDGE_CURVE('',#420,#420,#474,.T.);
#343=EDGE_CURVE('',#421,#421,#182,.T.);
#344=EDGE_CURVE('',#422,#422,#183,.F.);
#345=EDGE_CURVE('',#423,#424,#12,.T.);
#346=EDGE_CURVE('',#425,#424,#13,.T.);
#347=EDGE_CURVE('',#426,#425,#14,.T.);
#348=EDGE_CURVE('',#426,#423,#15,.T.);
#349=EDGE_CURVE('',#423,#427,#16,.T.);
#350=EDGE_CURVE('',#426,#428,#17,.T.);
#351=EDGE_CURVE('',#428,#427,#18,.T.);
#352=EDGE_CURVE('',#427,#429,#19,.T.);
#353=EDGE_CURVE('',#428,#430,#20,.T.);
#354=EDGE_CURVE('',#430,#429,#21,.T.);
#355=EDGE_CURVE('',#429,#431,#22,.T.);
#356=EDGE_CURVE('',#430,#432,#23,.T.);
#357=EDGE_CURVE('',#432,#431,#24,.T.);
#358=EDGE_CURVE('',#431,#433,#25,.T.);
#359=EDGE_CURVE('',#432,#434,#26,.T.);
#360=EDGE_CURVE('',#434,#433,#27,.T.);
#361=EDGE_CURVE('',#433,#435,#28,.T.);
#362=EDGE_CURVE('',#434,#436,#29,.T.);
#363=EDGE_CURVE('',#436,#435,#30,.T.);
#364=EDGE_CURVE('',#435,#437,#31,.T.);
#365=EDGE_CURVE('',#436,#438,#32,.T.);
#366=EDGE_CURVE('',#438,#437,#33,.T.);
#367=EDGE_CURVE('',#437,#439,#34,.T.);
#368=EDGE_CURVE('',#438,#440,#35,.T.);
#369=EDGE_CURVE('',#440,#439,#36,.T.);
#370=EDGE_CURVE('',#439,#441,#37,.T.);
#371=EDGE_CURVE('',#440,#442,#38,.T.);
#372=EDGE_CURVE('',#442,#441,#39,.T.);
#373=EDGE_CURVE('',#441,#443,#40,.T.);
#374=EDGE_CURVE('',#442,#444,#41,.T.);
#375=EDGE_CURVE('',#444,#443,#42,.T.);
#376=EDGE_CURVE('',#443,#445,#43,.T.);
#377=EDGE_CURVE('',#444,#446,#44,.T.);
#378=EDGE_CURVE('',#446,#445,#45,.T.);
#379=EDGE_CURVE('',#445,#447,#46,.T.);
#380=EDGE_CURVE('',#446,#448,#47,.T.);
#381=EDGE_CURVE('',#448,#447,#48,.T.);
#382=EDGE_CURVE('',#449,#449,#184,.T.);
#383=EDGE_CURVE('',#450,#447,#49,.T.);
#384=EDGE_CURVE('',#451,#448,#50,.T.);
#385=EDGE_CURVE('',#451,#450,#51,.T.);
#386=EDGE_CURVE('',#452,#450,#52,.T.);
#387=EDGE_CURVE('',#453,#451,#53,.T.);
#388=EDGE_CURVE('',#453,#452,#54,.T.);
#389=EDGE_CURVE('',#454,#452,#55,.T.);
#390=EDGE_CURVE('',#455,#453,#56,.T.);
#391=EDGE_CURVE('',#455,#454,#57,.T.);
#392=EDGE_CURVE('',#456,#454,#58,.T.);
#393=EDGE_CURVE('',#457,#455,#59,.T.);
#394=EDGE_CURVE('',#457,#456,#60,.T.);
#395=EDGE_CURVE('',#458,#456,#61,.T.);
#396=EDGE_CURVE('',#459,#457,#62,.T.);
#397=EDGE_CURVE('',#459,#458,#63,.T.);
#398=EDGE_CURVE('',#460,#458,#64,.T.);
#399=EDGE_CURVE('',#461,#459,#65,.T.);
#400=EDGE_CURVE('',#461,#460,#66,.T.);
#401=EDGE_CURVE('',#462,#460,#67,.T.);
#402=EDGE_CURVE('',#463,#461,#68,.T.);
#403=EDGE_CURVE('',#463,#462,#69,.T.);
#404=EDGE_CURVE('',#464,#462,#70,.T.);
#405=EDGE_CURVE('',#465,#463,#71,.T.);
#406=EDGE_CURVE('',#465,#464,#72,.T.);
#407=EDGE_CURVE('',#466,#464,#73,.T.);
#408=EDGE_CURVE('',#467,#465,#74,.T.);
#409=EDGE_CURVE('',#467,#466,#75,.T.);
#410=EDGE_CURVE('',#468,#466,#76,.T.);
#411=EDGE_CURVE('',#469,#467,#77,.T.);
#412=EDGE_CURVE('',#469,#468,#78,.T.);
#413=EDGE_CURVE('',#470,#468,#79,.T.);
#414=EDGE_CURVE('',#471,#469,#80,.T.);
#415=EDGE_CURVE('',#471,#470,#81,.T.);
#416=EDGE_CURVE('',#424,#470,#82,.T.);
#417=EDGE_CURVE('',#425,#471,#83,.T.);
#418=EDGE_CURVE('',#472,#472,#185,.T.);
#419=EDGE_CURVE('',#473,#473,#475,.T.);
#420=VERTEX_POINT('',#791);
#421=VERTEX_POINT('',#793);
#422=VERTEX_POINT('',#796);
#423=VERTEX_POINT('',#798);
#424=VERTEX_POINT('',#799);
#425=VERTEX_POINT('',#801);
#426=VERTEX_POINT('',#803);
#427=VERTEX_POINT('',#807);
#428=VERTEX_POINT('',#809);
#429=VERTEX_POINT('',#813);
#430=VERTEX_POINT('',#815);
#431=VERTEX_POINT('',#819);
#432=VERTEX_POINT('',#821);
#433=VERTEX_POINT('',#825);
#434=VERTEX_POINT('',#827);
#435=VERTEX_POINT('',#831);
#436=VERTEX_POINT('',#833);
#437=VERTEX_POINT('',#837);
#438=VERTEX_POINT('',#839);
#439=VERTEX_POINT('',#843);
#440=VERTEX_POINT('',#845);
#441=VERTEX_POINT('',#849);
#442=VERTEX_POINT('',#851);
#443=VERTEX_POINT('',#855);
#444=VERTEX_POINT('',#857);
#445=VERTEX_POINT('',#861);
#446=VERTEX_POINT('',#863);
#447=VERTEX_POINT('',#867);
#448=VERTEX_POINT('',#869);
#449=VERTEX_POINT('',#873);
#450=VERTEX_POINT('',#875);
#451=VERTEX_POINT('',#877);
#452=VERTEX_POINT('',#881);
#453=VERTEX_POINT('',#883);
#454=VERTEX_POINT('',#887);
#455=VERTEX_POINT('',#889);
#456=VERTEX_POINT('',#893);
#457=VERTEX_POINT('',#895);
#458=VERTEX_POINT('',#899);
#459=VERTEX_POINT('',#901);
#460=VERTEX_POINT('',#905);
#461=VERTEX_POINT('',#907);
#462=VERTEX_POINT('',#911);
#463=VERTEX_POINT('',#913);
#464=VERTEX_POINT('',#917);
#465=VERTEX_POINT('',#919);
#466=VERTEX_POINT('',#923);
#467=VERTEX_POINT('',#925);
#468=VERTEX_POINT('',#929);
#469=VERTEX_POINT('',#931);
#470=VERTEX_POINT('',#935);
#471=VERTEX_POINT('',#937);
#472=VERTEX_POINT('',#945);
#473=VERTEX_POINT('',#966);
#474=B_SPLINE_CURVE_WITH_KNOTS('',3,(#772,#773,#774,#775,#776,#777,#778,
#779,#780,#781,#782,#783,#784,#785,#786,#787,#788,#789,#790),
 .UNSPECIFIED.,.T.,.F.,(1,1,1,1,1,1,1,1,1,1,1,1,1,1,1,1,1,1,1,1,1,1,1),
(-0.00156793284064129,-0.00104528856042753,-0.000522644280213763,0.,0.000522644280213764,
0.00104528856042753,0.00156793284064129,0.00209057712085506,0.00261322140106882,
0.00313586568128258,0.00365850996149635,0.00418115424171011,0.00470379852192387,
0.00522644280213764,0.0057490870823514,0.00627173136256517,0.00679437564277893,
0.00731701992299269,0.00783966420320646,0.00836230848342022,0.00888495276363399,
0.00940759704384775,0.00993024132406151),.UNSPECIFIED.);
#475=B_SPLINE_CURVE_WITH_KNOTS('',3,(#947,#948,#949,#950,#951,#952,#953,
#954,#955,#956,#957,#958,#959,#960,#961,#962,#963,#964,#965),
 .UNSPECIFIED.,.T.,.F.,(1,1,1,1,1,1,1,1,1,1,1,1,1,1,1,1,1,1,1,1,1,1,1),
(-0.0015679328406413,-0.00104528856042753,-0.000522644280213765,0.,0.000522644280213765,
0.00104528856042753,0.0015679328406413,0.00209057712085506,0.00261322140106883,
0.00313586568128259,0.00365850996149636,0.00418115424171012,0.00470379852192389,
0.00522644280213765,0.00574908708235142,0.00627173136256518,0.00679437564277895,
0.00731701992299271,0.00783966420320648,0.00836230848342024,0.00888495276363401,
0.00940759704384777,0.00993024132406154),.UNSPECIFIED.);
#476=EDGE_LOOP('',(#186));
#477=EDGE_LOOP('',(#187));
#478=EDGE_LOOP('',(#188));
#479=EDGE_LOOP('',(#189,#190,#191,#192));
#480=EDGE_LOOP('',(#193,#194,#195,#196));
#481=EDGE_LOOP('',(#197,#198,#199,#200));
#482=EDGE_LOOP('',(#201,#202,#203,#204));
#483=EDGE_LOOP('',(#205,#206,#207,#208));
#484=EDGE_LOOP('',(#209,#210,#211,#212));
#485=EDGE_LOOP('',(#213,#214,#215,#216));
#486=EDGE_LOOP('',(#217,#218,#219,#220));
#487=EDGE_LOOP('',(#221,#222,#223,#224));
#488=EDGE_LOOP('',(#225,#226,#227,#228));
#489=EDGE_LOOP('',(#229,#230,#231,#232));
#490=EDGE_LOOP('',(#233,#234,#235,#236));
#491=EDGE_LOOP('',(#237));
#492=EDGE_LOOP('',(#238,#239,#240,#241));
#493=EDGE_LOOP('',(#242,#243,#244,#245));
#494=EDGE_LOOP('',(#246,#247,#248,#249));
#495=EDGE_LOOP('',(#250,#251,#252,#253));
#496=EDGE_LOOP('',(#254,#255,#256,#257));
#497=EDGE_LOOP('',(#258,#259,#260,#261));
#498=EDGE_LOOP('',(#262,#263,#264,#265));
#499=EDGE_LOOP('',(#266,#267,#268,#269));
#500=EDGE_LOOP('',(#270,#271,#272,#273));
#501=EDGE_LOOP('',(#274,#275,#276,#277));
#502=EDGE_LOOP('',(#278,#279,#280,#281));
#503=EDGE_LOOP('',(#282,#283,#284,#285));
#504=EDGE_LOOP('',(#286));
#505=EDGE_LOOP('',(#287,#288,#289,#290,#291,#292,#293,#294,#295,#296,#297,
#298,#299,#300,#301,#302,#303,#304,#305,#306,#307,#308,#309,#310));
#506=EDGE_LOOP('',(#311));
#507=EDGE_LOOP('',(#312,#313,#314,#315,#316,#317,#318,#319,#320,#321,#322,
#323,#324,#325,#326,#327,#328,#329,#330,#331,#332,#333,#334,#335));
#508=EDGE_LOOP('',(#336));
#509=EDGE_LOOP('',(#337));
#510=EDGE_LOOP('',(#338));
#511=EDGE_LOOP('',(#339));
#512=EDGE_LOOP('',(#340));
#513=EDGE_LOOP('',(#341));
#514=FACE_BOUND('',#476,.T.);
#515=FACE_BOUND('',#477,.T.);
#516=FACE_BOUND('',#478,.T.);
#517=FACE_BOUND('',#479,.T.);
#518=FACE_BOUND('',#480,.T.);
#519=FACE_BOUND('',#481,.T.);
#520=FACE_BOUND('',#482,.T.);
#521=FACE_BOUND('',#483,.T.);
#522=FACE_BOUND('',#484,.T.);
#523=FACE_BOUND('',#485,.T.);
#524=FACE_BOUND('',#486,.T.);
#525=FACE_BOUND('',#487,.T.);
#526=FACE_BOUND('',#488,.T.);
#527=FACE_BOUND('',#489,.T.);
#528=FACE_BOUND('',#490,.T.);
#529=FACE_BOUND('',#491,.T.);
#530=FACE_BOUND('',#492,.T.);
#531=FACE_BOUND('',#493,.T.);
#532=FACE_BOUND('',#494,.T.);
#533=FACE_BOUND('',#495,.T.);
#534=FACE_BOUND('',#496,.T.);
#535=FACE_BOUND('',#497,.T.);
#536=FACE_BOUND('',#498,.T.);
#537=FACE_BOUND('',#499,.T.);
#538=FACE_BOUND('',#500,.T.);
#539=FACE_BOUND('',#501,.T.);
#540=FACE_BOUND('',#502,.T.);
#541=FACE_BOUND('',#503,.T.);
#542=FACE_BOUND('',#504,.T.);
#543=FACE_BOUND('',#505,.T.);
#544=FACE_BOUND('',#506,.T.);
#545=FACE_BOUND('',#507,.T.);
#546=FACE_BOUND('',#508,.T.);
#547=FACE_BOUND('',#509,.T.);
#548=FACE_BOUND('',#510,.T.);
#549=FACE_BOUND('',#511,.T.);
#550=FACE_BOUND('',#512,.T.);
#551=FACE_BOUND('',#513,.T.);
#552=CYLINDRICAL_SURFACE('',#597,0.00125);
#553=CYLINDRICAL_SURFACE('',#628,0.00125);
#554=CYLINDRICAL_SURFACE('',#629,0.0015);
#555=ADVANCED_FACE('',(#514,#515),#552,.F.);
#556=ADVANCED_FACE('',(#516,#517),#156,.F.);
#557=ADVANCED_FACE('',(#518),#157,.T.);
#558=ADVANCED_FACE('',(#519),#158,.T.);
#559=ADVANCED_FACE('',(#520),#159,.T.);
#560=ADVANCED_FACE('',(#521),#160,.T.);
#561=ADVANCED_FACE('',(#522),#161,.T.);
#562=ADVANCED_FACE('',(#523),#162,.T.);
#563=ADVANCED_FACE('',(#524),#163,.T.);
#564=ADVANCED_FACE('',(#525),#164,.T.);
#565=ADVANCED_FACE('',(#526),#165,.T.);
#566=ADVANCED_FACE('',(#527),#166,.T.);
#567=ADVANCED_FACE('',(#528),#167,.T.);
#568=ADVANCED_FACE('',(#529,#530),#168,.F.);
#569=ADVANCED_FACE('',(#531),#169,.F.);
#570=ADVANCED_FACE('',(#532),#170,.F.);
#571=ADVANCED_FACE('',(#533),#171,.F.);
#572=ADVANCED_FACE('',(#534),#172,.F.);
#573=ADVANCED_FACE('',(#535),#173,.F.);
#574=ADVANCED_FACE('',(#536),#174,.F.);
#575=ADVANCED_FACE('',(#537),#175,.F.);
#576=ADVANCED_FACE('',(#538),#176,.F.);
#577=ADVANCED_FACE('',(#539),#177,.F.);
#578=ADVANCED_FACE('',(#540),#178,.F.);
#579=ADVANCED_FACE('',(#541),#179,.F.);
#580=ADVANCED_FACE('',(#542,#543),#180,.F.);
#581=ADVANCED_FACE('',(#544,#545),#181,.T.);
#582=ADVANCED_FACE('',(#546,#547),#553,.F.);
#583=ADVANCED_FACE('',(#548,#549,#550,#551),#554,.F.);
#584=CLOSED_SHELL('',(#555,#556,#557,#558,#559,#560,#561,#562,#563,#564,
#565,#566,#567,#568,#569,#570,#571,#572,#573,#574,#575,#576,#577,#578,#579,
#580,#581,#582,#583));
#585=STYLED_ITEM('',(#586),#593);
#586=PRESENTATION_STYLE_ASSIGNMENT((#587));
#587=SURFACE_STYLE_USAGE(.BOTH.,#588);
#588=SURFACE_SIDE_STYLE('',(#589));
#589=SURFACE_STYLE_FILL_AREA(#590);
#590=FILL_AREA_STYLE('',(#591));
#591=FILL_AREA_STYLE_COLOUR('',#592);
#592=COLOUR_RGB('',0.615686274509804,0.811764705882353,0.929411764705882);
#593=MANIFOLD_SOLID_BREP('Part 1',#584);
#594=SHAPE_DEFINITION_REPRESENTATION(#974,#595);
#595=SHAPE_REPRESENTATION('Part 1',(#596),#969);
#596=AXIS2_PLACEMENT_3D('',#770,#630,#631);
#597=AXIS2_PLACEMENT_3D('',#771,#632,#633);
#598=AXIS2_PLACEMENT_3D('',#792,#634,#635);
#599=AXIS2_PLACEMENT_3D('',#794,#636,#637);
#600=AXIS2_PLACEMENT_3D('',#795,#638,#639);
#601=AXIS2_PLACEMENT_3D('',#805,#644,#645);
#602=AXIS2_PLACEMENT_3D('',#811,#649,#650);
#603=AXIS2_PLACEMENT_3D('',#817,#654,#655);
#604=AXIS2_PLACEMENT_3D('',#823,#659,#660);
#605=AXIS2_PLACEMENT_3D('',#829,#664,#665);
#606=AXIS2_PLACEMENT_3D('',#835,#669,#670);
#607=AXIS2_PLACEMENT_3D('',#841,#674,#675);
#608=AXIS2_PLACEMENT_3D('',#847,#679,#680);
#609=AXIS2_PLACEMENT_3D('',#853,#684,#685);
#610=AXIS2_PLACEMENT_3D('',#859,#689,#690);
#611=AXIS2_PLACEMENT_3D('',#865,#694,#695);
#612=AXIS2_PLACEMENT_3D('',#871,#699,#700);
#613=AXIS2_PLACEMENT_3D('',#872,#701,#702);
#614=AXIS2_PLACEMENT_3D('',#879,#706,#707);
#615=AXIS2_PLACEMENT_3D('',#885,#711,#712);
#616=AXIS2_PLACEMENT_3D('',#891,#716,#717);
#617=AXIS2_PLACEMENT_3D('',#897,#721,#722);
#618=AXIS2_PLACEMENT_3D('',#903,#726,#727);
#619=AXIS2_PLACEMENT_3D('',#909,#731,#732);
#620=AXIS2_PLACEMENT_3D('',#915,#736,#737);
#621=AXIS2_PLACEMENT_3D('',#921,#741,#742);
#622=AXIS2_PLACEMENT_3D('',#927,#746,#747);
#623=AXIS2_PLACEMENT_3D('',#933,#751,#752);
#624=AXIS2_PLACEMENT_3D('',#939,#756,#757);
#625=AXIS2_PLACEMENT_3D('',#942,#760,#761);
#626=AXIS2_PLACEMENT_3D('',#943,#762,#763);
#627=AXIS2_PLACEMENT_3D('',#944,#764,#765);
#628=AXIS2_PLACEMENT_3D('',#946,#766,#767);
#629=AXIS2_PLACEMENT_3D('',#967,#768,#769);
#630=DIRECTION('',(0.,0.,1.));
#631=DIRECTION('',(1.,0.,0.));
#632=DIRECTION('',(0.,1.,0.));
#633=DIRECTION('',(1.,0.,0.));
#634=DIRECTION('',(0.,1.,0.));
#635=DIRECTION('',(1.,0.,0.));
#636=DIRECTION('',(0.,0.,-1.));
#637=DIRECTION('',(0.,1.,0.));
#638=DIRECTION('',(0.,0.,-1.));
#639=DIRECTION('',(0.,1.,0.));
#640=DIRECTION('',(-1.,0.,0.));
#641=DIRECTION('',(0.,1.,0.));
#642=DIRECTION('',(-1.,0.,0.));
#643=DIRECTION('',(0.,1.,0.));
#644=DIRECTION('',(-1.,0.,0.));
#645=DIRECTION('',(0.,1.,0.));
#646=DIRECTION('',(0.,0.,1.));
#647=DIRECTION('',(0.,0.,1.));
#648=DIRECTION('',(0.,1.,0.));
#649=DIRECTION('',(-1.97127667724637E-16,0.,1.));
#650=DIRECTION('',(1.,0.,1.97127667724637E-16));
#651=DIRECTION('',(1.,0.,1.97127667724637E-16));
#652=DIRECTION('',(1.,0.,1.97127667724637E-16));
#653=DIRECTION('',(0.,1.,0.));
#654=DIRECTION('',(1.,0.,0.));
#655=DIRECTION('',(0.,-1.,0.));
#656=DIRECTION('',(0.,0.,-1.));
#657=DIRECTION('',(0.,0.,-1.));
#658=DIRECTION('',(0.,1.,0.));
#659=DIRECTION('',(0.,0.,-1.));
#660=DIRECTION('',(0.,1.,0.));
#661=DIRECTION('',(-1.,0.,0.));
#662=DIRECTION('',(-1.,0.,0.));
#663=DIRECTION('',(0.,1.,0.));
#664=DIRECTION('',(-1.,0.,0.));
#665=DIRECTION('',(0.,1.,0.));
#666=DIRECTION('',(0.,0.,1.));
#667=DIRECTION('',(0.,0.,1.));
#668=DIRECTION('',(0.,1.,0.));
#669=DIRECTION('',(1.97127667724637E-16,0.,-1.));
#670=DIRECTION('',(-1.,0.,-1.97127667724637E-16));
#671=DIRECTION('',(-1.,0.,-1.97127667724637E-16));
#672=DIRECTION('',(-1.,0.,-1.97127667724637E-16));
#673=DIRECTION('',(0.,1.,0.));
#674=DIRECTION('',(1.,0.,4.33680868994202E-16));
#675=DIRECTION('',(4.33680868994202E-16,0.,-1.));
#676=DIRECTION('',(4.33680868994202E-16,0.,-1.));
#677=DIRECTION('',(4.33680868994202E-16,0.,-1.));
#678=DIRECTION('',(0.,1.,0.));
#679=DIRECTION('',(0.,0.,-1.));
#680=DIRECTION('',(0.,1.,0.));
#681=DIRECTION('',(-1.,0.,0.));
#682=DIRECTION('',(-1.,0.,0.));
#683=DIRECTION('',(0.,1.,0.));
#684=DIRECTION('',(-1.,0.,0.));
#685=DIRECTION('',(0.,1.,0.));
#686=DIRECTION('',(0.,0.,1.));
#687=DIRECTION('',(0.,0.,1.));
#688=DIRECTION('',(0.,1.,0.));
#689=DIRECTION('',(1.97127667724637E-16,0.,-1.));
#690=DIRECTION('',(-1.,0.,-1.97127667724637E-16));
#691=DIRECTION('',(-1.,0.,-1.97127667724637E-16));
#692=DIRECTION('',(-1.,0.,-1.97127667724637E-16));
#693=DIRECTION('',(0.,1.,0.));
#694=DIRECTION('',(1.,0.,4.33680868994202E-16));
#695=DIRECTION('',(4.33680868994202E-16,0.,-1.));
#696=DIRECTION('',(4.33680868994202E-16,0.,-1.));
#697=DIRECTION('',(4.33680868994202E-16,0.,-1.));
#698=DIRECTION('',(0.,1.,0.));
#699=DIRECTION('',(0.,0.,1.));
#700=DIRECTION('',(0.,-1.,0.));
#701=DIRECTION('',(0.,0.,-1.));
#702=DIRECTION('',(0.,1.,0.));
#703=DIRECTION('',(1.,0.,0.));
#704=DIRECTION('',(1.,0.,0.));
#705=DIRECTION('',(0.,1.,0.));
#706=DIRECTION('',(1.,0.,-4.33680868994202E-16));
#707=DIRECTION('',(-4.33680868994202E-16,0.,-1.));
#708=DIRECTION('',(-4.33680868994202E-16,0.,-1.));
#709=DIRECTION('',(-4.33680868994202E-16,0.,-1.));
#710=DIRECTION('',(0.,1.,0.));
#711=DIRECTION('',(1.97127667724637E-16,0.,1.));
#712=DIRECTION('',(1.,0.,-1.97127667724637E-16));
#713=DIRECTION('',(1.,0.,-1.97127667724637E-16));
#714=DIRECTION('',(1.,0.,-1.97127667724637E-16));
#715=DIRECTION('',(0.,1.,0.));
#716=DIRECTION('',(-1.,0.,0.));
#717=DIRECTION('',(0.,1.,0.));
#718=DIRECTION('',(0.,0.,1.));
#719=DIRECTION('',(0.,0.,1.));
#720=DIRECTION('',(0.,1.,0.));
#721=DIRECTION('',(0.,0.,1.));
#722=DIRECTION('',(0.,-1.,0.));
#723=DIRECTION('',(1.,0.,0.));
#724=DIRECTION('',(1.,0.,0.));
#725=DIRECTION('',(0.,1.,0.));
#726=DIRECTION('',(1.,0.,-4.33680868994202E-16));
#727=DIRECTION('',(-4.33680868994202E-16,0.,-1.));
#728=DIRECTION('',(-4.33680868994202E-16,0.,-1.));
#729=DIRECTION('',(-4.33680868994202E-16,0.,-1.));
#730=DIRECTION('',(0.,1.,0.));
#731=DIRECTION('',(1.97127667724637E-16,0.,1.));
#732=DIRECTION('',(1.,0.,-1.97127667724637E-16));
#733=DIRECTION('',(1.,0.,-1.97127667724637E-16));
#734=DIRECTION('',(1.,0.,-1.97127667724637E-16));
#735=DIRECTION('',(0.,1.,0.));
#736=DIRECTION('',(-1.,0.,0.));
#737=DIRECTION('',(0.,1.,0.));
#738=DIRECTION('',(0.,0.,1.));
#739=DIRECTION('',(0.,0.,1.));
#740=DIRECTION('',(0.,1.,0.));
#741=DIRECTION('',(0.,0.,1.));
#742=DIRECTION('',(0.,-1.,0.));
#743=DIRECTION('',(1.,0.,0.));
#744=DIRECTION('',(1.,0.,0.));
#745=DIRECTION('',(0.,1.,0.));
#746=DIRECTION('',(1.,0.,0.));
#747=DIRECTION('',(0.,-1.,0.));
#748=DIRECTION('',(0.,0.,-1.));
#749=DIRECTION('',(0.,0.,-1.));
#750=DIRECTION('',(0.,1.,0.));
#751=DIRECTION('',(-1.97127667724637E-16,0.,-1.));
#752=DIRECTION('',(-1.,0.,1.97127667724637E-16));
#753=DIRECTION('',(-1.,0.,1.97127667724637E-16));
#754=DIRECTION('',(-1.,0.,1.97127667724637E-16));
#755=DIRECTION('',(0.,1.,0.));
#756=DIRECTION('',(-1.,0.,0.));
#757=DIRECTION('',(0.,1.,0.));
#758=DIRECTION('',(0.,0.,1.));
#759=DIRECTION('',(0.,0.,1.));
#760=DIRECTION('',(0.,1.,0.));
#761=DIRECTION('',(1.,0.,0.));
#762=DIRECTION('',(0.,1.,0.));
#763=DIRECTION('',(1.,0.,0.));
#764=DIRECTION('',(0.,1.,0.));
#765=DIRECTION('',(1.,0.,0.));
#766=DIRECTION('',(0.,1.,0.));
#767=DIRECTION('',(1.,0.,0.));
#768=DIRECTION('',(0.,0.,-1.));
#769=DIRECTION('',(0.,1.,0.));
#770=CARTESIAN_POINT('',(0.,0.,0.));
#771=CARTESIAN_POINT('',(-7.65404249467096E-20,-0.0287503896981234,-0.0024));
#772=CARTESIAN_POINT('',(0.00117327881934838,-0.00765044615069644,-0.00188572251869882));
#773=CARTESIAN_POINT('',(0.00128820516902108,-0.0074687357094591,-0.00240058716177272));
#774=CARTESIAN_POINT('',(0.00117390050456729,-0.00764954819700026,-0.00291192883421029));
#775=CARTESIAN_POINT('',(0.0009172434132942,-0.00791022483339172,-0.00328861776046245));
#776=CARTESIAN_POINT('',(0.00052393929675237,-0.00813432328549587,-0.00357261848090678));
#777=CARTESIAN_POINT('',(1.80939750339939E-6,-0.00823251272487137,-0.00368828923421728));
#778=CARTESIAN_POINT('',(-0.000520731229519196,-0.00813561975325244,-0.00357421730810354));
#779=CARTESIAN_POINT('',(-0.000916068378960933,-0.00791128475256932,-0.00328993343619955));
#780=CARTESIAN_POINT('',(-0.00117336214400532,-0.00765027880233329,-0.00291370597466038));
#781=CARTESIAN_POINT('',(-0.00128807146919919,-0.00746888656711496,-0.00240028492811523));
#782=CARTESIAN_POINT('',(-0.00117435119923781,-0.00764911329057385,-0.00188857475158052));
#783=CARTESIAN_POINT('',(-0.000916656520577356,-0.00791052063891375,-0.00151103998292135));
#784=CARTESIAN_POINT('',(-0.000526329038364062,-0.00813320882600819,-0.00122875189513814));
#785=CARTESIAN_POINT('',(-4.0092456440823E-6,-0.00823269463629048,-0.0011114868867558));
#786=CARTESIAN_POINT('',(0.000519899816800277,-0.00813598458821239,-0.0012253342066027));
#787=CARTESIAN_POINT('',(0.000915368013081404,-0.00791183978486553,-0.00150937358284164));
#788=CARTESIAN_POINT('',(0.00117327881934838,-0.00765044615069644,-0.00188572251869882));
#789=CARTESIAN_POINT('',(0.00128820516902108,-0.0074687357094591,-0.00240058716177272));
#790=CARTESIAN_POINT('',(0.00117390050456729,-0.00764954819700026,-0.00291192883421029));
#791=CARTESIAN_POINT('',(0.00125,-0.00752915619758885,-0.0024));
#792=CARTESIAN_POINT('',(-7.65404249467096E-20,-0.025,-0.0024));
#793=CARTESIAN_POINT('',(0.00125,-0.025,-0.0024));
#794=CARTESIAN_POINT('',(-0.0026,-0.025,0.));
#795=CARTESIAN_POINT('',(2.58381963629825E-19,-0.0067,0.));
#796=CARTESIAN_POINT('',(2.58381963629825E-19,-0.0052,0.));
#797=CARTESIAN_POINT('',(-0.0026,0.,0.));
#798=CARTESIAN_POINT('',(0.0052,0.,0.));
#799=CARTESIAN_POINT('',(-0.0052,0.,0.));
#800=CARTESIAN_POINT('',(-0.0052,-0.025,0.));
#801=CARTESIAN_POINT('',(-0.0052,-0.025,0.));
#802=CARTESIAN_POINT('',(-0.0026,-0.025,0.));
#803=CARTESIAN_POINT('',(0.0052,-0.025,0.));
#804=CARTESIAN_POINT('',(0.0052,-0.025,0.));
#805=CARTESIAN_POINT('',(0.0052,-0.025,0.00075));
#806=CARTESIAN_POINT('',(0.0052,0.,0.00075));
#807=CARTESIAN_POINT('',(0.0052,0.,0.0015));
#808=CARTESIAN_POINT('',(0.0052,-0.025,0.00075));
#809=CARTESIAN_POINT('',(0.0052,-0.025,0.0015));
#810=CARTESIAN_POINT('',(0.0052,-0.025,0.0015));
#811=CARTESIAN_POINT('',(0.00575,-0.025,0.0015));
#812=CARTESIAN_POINT('',(0.00575,0.,0.0015));
#813=CARTESIAN_POINT('',(0.0063,0.,0.0015));
#814=CARTESIAN_POINT('',(0.00575,-0.025,0.0015));
#815=CARTESIAN_POINT('',(0.0063,-0.025,0.0015));
#816=CARTESIAN_POINT('',(0.0063,-0.025,0.0015));
#817=CARTESIAN_POINT('',(0.0063,-0.025,-0.00175));
#818=CARTESIAN_POINT('',(0.0063,0.,-0.00175));
#819=CARTESIAN_POINT('',(0.0063,0.,-0.005));
#820=CARTESIAN_POINT('',(0.0063,-0.025,-0.00175));
#821=CARTESIAN_POINT('',(0.0063,-0.025,-0.005));
#822=CARTESIAN_POINT('',(0.0063,-0.025,-0.005));
#823=CARTESIAN_POINT('',(0.00575,-0.025,-0.005));
#824=CARTESIAN_POINT('',(0.00575,0.,-0.005));
#825=CARTESIAN_POINT('',(0.0052,0.,-0.005));
#826=CARTESIAN_POINT('',(0.00575,-0.025,-0.005));
#827=CARTESIAN_POINT('',(0.0052,-0.025,-0.005));
#828=CARTESIAN_POINT('',(0.0052,-0.025,-0.005));
#829=CARTESIAN_POINT('',(0.0052,-0.025,-0.003));
#830=CARTESIAN_POINT('',(0.0052,0.,-0.003));
#831=CARTESIAN_POINT('',(0.0052,0.,-0.001));
#832=CARTESIAN_POINT('',(0.0052,-0.025,-0.003));
#833=CARTESIAN_POINT('',(0.0052,-0.025,-0.001));
#834=CARTESIAN_POINT('',(0.0052,-0.025,-0.001));
#835=CARTESIAN_POINT('',(0.00465,-0.025,-0.001));
#836=CARTESIAN_POINT('',(0.00465,0.,-0.001));
#837=CARTESIAN_POINT('',(0.0041,0.,-0.001));
#838=CARTESIAN_POINT('',(0.00465,-0.025,-0.001));
#839=CARTESIAN_POINT('',(0.0041,-0.025,-0.001));
#840=CARTESIAN_POINT('',(0.0041,-0.025,-0.001));
#841=CARTESIAN_POINT('',(0.0041,-0.025,-0.003));
#842=CARTESIAN_POINT('',(0.0041,0.,-0.003));
#843=CARTESIAN_POINT('',(0.0041,0.,-0.005));
#844=CARTESIAN_POINT('',(0.0041,-0.025,-0.003));
#845=CARTESIAN_POINT('',(0.0041,-0.025,-0.005));
#846=CARTESIAN_POINT('',(0.0041,-0.025,-0.005));
#847=CARTESIAN_POINT('',(0.00355,-0.025,-0.005));
#848=CARTESIAN_POINT('',(0.00355,0.,-0.005));
#849=CARTESIAN_POINT('',(0.003,0.,-0.005));
#850=CARTESIAN_POINT('',(0.00355,-0.025,-0.005));
#851=CARTESIAN_POINT('',(0.003,-0.025,-0.005));
#852=CARTESIAN_POINT('',(0.003,-0.025,-0.005));
#853=CARTESIAN_POINT('',(0.003,-0.025,-0.003));
#854=CARTESIAN_POINT('',(0.003,0.,-0.003));
#855=CARTESIAN_POINT('',(0.003,0.,-0.001));
#856=CARTESIAN_POINT('',(0.003,-0.025,-0.003));
#857=CARTESIAN_POINT('',(0.003,-0.025,-0.001));
#858=CARTESIAN_POINT('',(0.003,-0.025,-0.001));
#859=CARTESIAN_POINT('',(0.00245,-0.025,-0.001));
#860=CARTESIAN_POINT('',(0.00245,0.,-0.001));
#861=CARTESIAN_POINT('',(0.0019,0.,-0.001));
#862=CARTESIAN_POINT('',(0.00245,-0.025,-0.001));
#863=CARTESIAN_POINT('',(0.0019,-0.025,-0.001));
#864=CARTESIAN_POINT('',(0.0019,-0.025,-0.001));
#865=CARTESIAN_POINT('',(0.0019,-0.025,-0.003));
#866=CARTESIAN_POINT('',(0.0019,0.,-0.003));
#867=CARTESIAN_POINT('',(0.0019,0.,-0.005));
#868=CARTESIAN_POINT('',(0.0019,-0.025,-0.003));
#869=CARTESIAN_POINT('',(0.0019,-0.025,-0.005));
#870=CARTESIAN_POINT('',(0.0019,-0.025,-0.005));
#871=CARTESIAN_POINT('',(-0.00095,-0.025,-0.005));
#872=CARTESIAN_POINT('',(2.58381963629825E-19,-0.0067,-0.005));
#873=CARTESIAN_POINT('',(2.58381963629825E-19,-0.0052,-0.005));
#874=CARTESIAN_POINT('',(-0.00095,0.,-0.005));
#875=CARTESIAN_POINT('',(-0.0019,0.,-0.005));
#876=CARTESIAN_POINT('',(-0.00095,-0.025,-0.005));
#877=CARTESIAN_POINT('',(-0.0019,-0.025,-0.005));
#878=CARTESIAN_POINT('',(-0.0019,-0.025,-0.005));
#879=CARTESIAN_POINT('',(-0.0019,-0.025,-0.003));
#880=CARTESIAN_POINT('',(-0.0019,0.,-0.003));
#881=CARTESIAN_POINT('',(-0.0019,0.,-0.001));
#882=CARTESIAN_POINT('',(-0.0019,-0.025,-0.003));
#883=CARTESIAN_POINT('',(-0.0019,-0.025,-0.001));
#884=CARTESIAN_POINT('',(-0.0019,-0.025,-0.001));
#885=CARTESIAN_POINT('',(-0.00245,-0.025,-0.001));
#886=CARTESIAN_POINT('',(-0.00245,0.,-0.001));
#887=CARTESIAN_POINT('',(-0.003,0.,-0.001));
#888=CARTESIAN_POINT('',(-0.00245,-0.025,-0.001));
#889=CARTESIAN_POINT('',(-0.003,-0.025,-0.001));
#890=CARTESIAN_POINT('',(-0.003,-0.025,-0.001));
#891=CARTESIAN_POINT('',(-0.003,-0.025,-0.003));
#892=CARTESIAN_POINT('',(-0.003,0.,-0.003));
#893=CARTESIAN_POINT('',(-0.003,0.,-0.005));
#894=CARTESIAN_POINT('',(-0.003,-0.025,-0.003));
#895=CARTESIAN_POINT('',(-0.003,-0.025,-0.005));
#896=CARTESIAN_POINT('',(-0.003,-0.025,-0.005));
#897=CARTESIAN_POINT('',(-0.00355,-0.025,-0.005));
#898=CARTESIAN_POINT('',(-0.00355,0.,-0.005));
#899=CARTESIAN_POINT('',(-0.0041,0.,-0.005));
#900=CARTESIAN_POINT('',(-0.00355,-0.025,-0.005));
#901=CARTESIAN_POINT('',(-0.0041,-0.025,-0.005));
#902=CARTESIAN_POINT('',(-0.0041,-0.025,-0.005));
#903=CARTESIAN_POINT('',(-0.0041,-0.025,-0.003));
#904=CARTESIAN_POINT('',(-0.0041,0.,-0.003));
#905=CARTESIAN_POINT('',(-0.0041,0.,-0.001));
#906=CARTESIAN_POINT('',(-0.0041,-0.025,-0.003));
#907=CARTESIAN_POINT('',(-0.0041,-0.025,-0.001));
#908=CARTESIAN_POINT('',(-0.0041,-0.025,-0.001));
#909=CARTESIAN_POINT('',(-0.00465,-0.025,-0.001));
#910=CARTESIAN_POINT('',(-0.00465,0.,-0.001));
#911=CARTESIAN_POINT('',(-0.0052,0.,-0.001));
#912=CARTESIAN_POINT('',(-0.00465,-0.025,-0.001));
#913=CARTESIAN_POINT('',(-0.0052,-0.025,-0.001));
#914=CARTESIAN_POINT('',(-0.0052,-0.025,-0.001));
#915=CARTESIAN_POINT('',(-0.0052,-0.025,-0.003));
#916=CARTESIAN_POINT('',(-0.0052,0.,-0.003));
#917=CARTESIAN_POINT('',(-0.0052,0.,-0.005));
#918=CARTESIAN_POINT('',(-0.0052,-0.025,-0.003));
#919=CARTESIAN_POINT('',(-0.0052,-0.025,-0.005));
#920=CARTESIAN_POINT('',(-0.0052,-0.025,-0.005));
#921=CARTESIAN_POINT('',(-0.00575,-0.025,-0.005));
#922=CARTESIAN_POINT('',(-0.00575,0.,-0.005));
#923=CARTESIAN_POINT('',(-0.0063,0.,-0.005));
#924=CARTESIAN_POINT('',(-0.00575,-0.025,-0.005));
#925=CARTESIAN_POINT('',(-0.0063,-0.025,-0.005));
#926=CARTESIAN_POINT('',(-0.0063,-0.025,-0.005));
#927=CARTESIAN_POINT('',(-0.0063,-0.025,-0.00175));
#928=CARTESIAN_POINT('',(-0.0063,0.,-0.00175));
#929=CARTESIAN_POINT('',(-0.0063,0.,0.0015));
#930=CARTESIAN_POINT('',(-0.0063,-0.025,-0.00175));
#931=CARTESIAN_POINT('',(-0.0063,-0.025,0.0015));
#932=CARTESIAN_POINT('',(-0.0063,-0.025,0.0015));
#933=CARTESIAN_POINT('',(-0.00575,-0.025,0.0015));
#934=CARTESIAN_POINT('',(-0.00575,0.,0.0015));
#935=CARTESIAN_POINT('',(-0.0052,0.,0.0015));
#936=CARTESIAN_POINT('',(-0.00575,-0.025,0.0015));
#937=CARTESIAN_POINT('',(-0.0052,-0.025,0.0015));
#938=CARTESIAN_POINT('',(-0.0052,-0.025,0.0015));
#939=CARTESIAN_POINT('',(-0.0052,-0.025,0.00075));
#940=CARTESIAN_POINT('',(-0.0052,0.,0.00075));
#941=CARTESIAN_POINT('',(-0.0052,-0.025,0.00075));
#942=CARTESIAN_POINT('',(0.,-0.025,0.));
#943=CARTESIAN_POINT('',(0.,0.,0.));
#944=CARTESIAN_POINT('',(-7.65404249467096E-20,0.,-0.0024));
#945=CARTESIAN_POINT('',(0.00125,0.,-0.0024));
#946=CARTESIAN_POINT('',(-7.65404249467096E-20,-0.0287503896981234,-0.0024));
#947=CARTESIAN_POINT('',(0.00117327881934838,-0.00574955384930356,-0.00291427748130118));
#948=CARTESIAN_POINT('',(0.00128820516902108,-0.0059312642905409,-0.00239941283822728));
#949=CARTESIAN_POINT('',(0.00117390050456729,-0.00575045180299973,-0.00188807116578971));
#950=CARTESIAN_POINT('',(0.000917243413294197,-0.00548977516660828,-0.00151138223953755));
#951=CARTESIAN_POINT('',(0.000523939296752368,-0.00526567671450413,-0.00122738151909321));
#952=CARTESIAN_POINT('',(1.80939750339144E-6,-0.00516748727512864,-0.00111171076578272));
#953=CARTESIAN_POINT('',(-0.000520731229519202,-0.00526438024674755,-0.00122578269189646));
#954=CARTESIAN_POINT('',(-0.000916068378960937,-0.00548871524743069,-0.00151006656380046));
#955=CARTESIAN_POINT('',(-0.00117336214400532,-0.00574972119766671,-0.00188629402533963));
#956=CARTESIAN_POINT('',(-0.00128807146919919,-0.00593111343288504,-0.00239971507188479));
#957=CARTESIAN_POINT('',(-0.0011743511992378,-0.00575088670942614,-0.00291142524841948));
#958=CARTESIAN_POINT('',(-0.000916656520577355,-0.00548947936108625,-0.00328896001707865));
#959=CARTESIAN_POINT('',(-0.000526329038364056,-0.00526679117399181,-0.00357124810486186));
#960=CARTESIAN_POINT('',(-4.00924564408704E-6,-0.00516730536370952,-0.0036885131132442));
#961=CARTESIAN_POINT('',(0.000519899816800279,-0.00526401541178761,-0.0035746657933973));
#962=CARTESIAN_POINT('',(0.000915368013081402,-0.00548816021513447,-0.00329062641715836));
#963=CARTESIAN_POINT('',(0.00117327881934838,-0.00574955384930356,-0.00291427748130118));
#964=CARTESIAN_POINT('',(0.00128820516902108,-0.0059312642905409,-0.00239941283822728));
#965=CARTESIAN_POINT('',(0.00117390050456729,-0.00575045180299973,-0.00188807116578971));
#966=CARTESIAN_POINT('',(0.00125,-0.00587084380241115,-0.0024));
#967=CARTESIAN_POINT('',(2.58381963629825E-19,-0.0067,0.001502));
#968=MECHANICAL_DESIGN_GEOMETRIC_PRESENTATION_REPRESENTATION('',(#585),
#969);
#969=(
GEOMETRIC_REPRESENTATION_CONTEXT(3)
GLOBAL_UNCERTAINTY_ASSIGNED_CONTEXT((#970))
GLOBAL_UNIT_ASSIGNED_CONTEXT((#973,#972,#971))
REPRESENTATION_CONTEXT('Part 1','TOP_LEVEL_ASSEMBLY_PART')
);
#970=UNCERTAINTY_MEASURE_WITH_UNIT(LENGTH_MEASURE(2.E-5),#973,
'DISTANCE_ACCURACY_VALUE','Maximum Tolerance applied to model');
#971=(
NAMED_UNIT(*)
SI_UNIT($,.STERADIAN.)
SOLID_ANGLE_UNIT()
);
#972=(
NAMED_UNIT(*)
PLANE_ANGLE_UNIT()
SI_UNIT($,.RADIAN.)
);
#973=(
LENGTH_UNIT()
NAMED_UNIT(*)
SI_UNIT($,.METRE.)
);
#974=PRODUCT_DEFINITION_SHAPE('','',#975);
#975=PRODUCT_DEFINITION('','',#977,#976);
#976=PRODUCT_DEFINITION_CONTEXT('',#983,'design');
#977=PRODUCT_DEFINITION_FORMATION_WITH_SPECIFIED_SOURCE('','',#979,
 .NOT_KNOWN.);
#978=PRODUCT_RELATED_PRODUCT_CATEGORY('','',(#979));
#979=PRODUCT('Part 1','Part 1','Part 1',(#981));
#980=PRODUCT_CATEGORY('','');
#981=PRODUCT_CONTEXT('',#983,'mechanical');
#982=APPLICATION_PROTOCOL_DEFINITION('international standard',
'ap242_managed_model_based_3d_engineering',2011,#983);
#983=APPLICATION_CONTEXT('managed model based 3d engineering');
ENDSEC;
END-ISO-10303-21;
